<svg height="512" width="512" xmlns="http://www.w3.org/2000/svg"><path d="M256 0L85.333 256 256 512c141.385 0 256-114.615 256-256S397.385 0 256 0z" fill="#d4e9ff"/><path d="M0 256c0 141.385 114.615 256 256 256V0C114.615 0 0 114.615 0 256z" fill="#edf6ff"/><path d="M256 60L125.333 256 256 452l146.733-160.948v-165C366.825 85.537 314.395 60 256 60z" fill="#94beff"/><path d="M71.025 191.028l-2.214 123.256C93.628 394.07 168.049 452 256 452V60c-85.475 0-158.17 54.713-184.975 131.028z" fill="#a8d4ff"/><path d="M184.149 143.541h30v30h-30z" fill="#94beff"/><path d="M126.055 191.028v69.044c0 31.208-25.296 56.504-56.504 56.504C63.346 297.507 60 277.138 60 256c0-22.773 3.888-44.636 11.024-64.972zM256 256l60 60.5-60 70.528-32.205-16.633a60.58 60.58 0 01-32.768-53.819c0-33.461 27.115-60.576 60.576-60.576z" fill="#54ab72"/><path d="M402.729 126.055C433.385 160.642 452 206.145 452 256c0 108.244-87.756 196-196 196V256h81.215c17.943 0 32.486-14.543 32.486-32.486s-14.543-32.486-32.486-32.486H286v-64.972h116.729z" fill="#47965c"/></svg>